<svg aria-hidden="true" style="position: absolute; width: 0; height: 0; overflow: hidden;" version="1.1" xmlns="http://www.w3.org/2000/svg" xmlns:xlink="http://www.w3.org/1999/xlink">
<defs>
<symbol id="icon-instagram" viewBox="0 0 32 32">
<path  d="M31.968 9.408c-0.074-1.701-0.349-2.869-0.742-3.882-0.424-1.111-1.054-2.059-1.85-2.837l-0.001-0.001c-0.78-0.792-1.724-1.419-2.778-1.827l-0.054-0.018c-1.019-0.394-2.181-0.667-3.882-0.742-1.712-0.082-2.256-0.101-6.602-0.101-4.344 0-4.888 0.019-6.595 0.094-1.699 0.074-2.869 0.349-3.88 0.742-1.112 0.424-2.060 1.054-2.839 1.85l-0.001 0.001c-0.791 0.78-1.418 1.724-1.825 2.778l-0.018 0.054c-0.395 1.019-0.669 2.181-0.744 3.882-0.082 1.712-0.101 2.256-0.101 6.602 0 4.344 0.019 4.888 0.094 6.595 0.075 1.701 0.35 2.869 0.744 3.882 0.426 1.11 1.055 2.057 1.849 2.837l0.001 0.001c0.8 0.813 1.77 1.443 2.832 1.843 1.019 0.395 2.182 0.67 3.882 0.744 1.707 0.075 2.251 0.094 6.595 0.094 4.346 0 4.89-0.019 6.595-0.094 1.701-0.074 2.869-0.349 3.882-0.742 2.157-0.85 3.833-2.526 4.664-4.628l0.019-0.055c0.394-1.019 0.669-2.182 0.744-3.882 0.075-1.707 0.093-2.251 0.093-6.595s-0.006-4.888-0.080-6.595zM29.088 22.474c-0.070 1.563-0.333 2.406-0.55 2.97-0.552 1.399-1.64 2.486-3.004 3.024l-0.036 0.012c-0.56 0.219-1.411 0.482-2.968 0.55-1.688 0.075-2.194 0.094-6.464 0.094-4.269 0-4.782-0.019-6.464-0.094-1.563-0.069-2.406-0.331-2.97-0.55-0.721-0.269-1.334-0.676-1.836-1.192l-0.001-0.001c-0.517-0.503-0.924-1.117-1.184-1.803l-0.011-0.034c-0.218-0.563-0.48-1.413-0.549-2.97-0.075-1.688-0.094-2.195-0.094-6.464 0-4.27 0.019-4.784 0.094-6.464 0.069-1.563 0.331-2.406 0.549-2.97 0.269-0.722 0.678-1.337 1.198-1.837l0.002-0.002c0.504-0.517 1.119-0.923 1.806-1.182l0.034-0.011c0.56-0.219 1.411-0.48 2.968-0.55 1.688-0.074 2.195-0.093 6.464-0.093 4.275 0 4.782 0.019 6.464 0.093 1.563 0.069 2.406 0.331 2.97 0.55 0.693 0.256 1.325 0.662 1.837 1.194 0.531 0.52 0.938 1.144 1.195 1.84 0.218 0.56 0.48 1.411 0.549 2.968 0.075 1.688 0.094 2.194 0.094 6.464 0 4.269-0.019 4.768-0.094 6.458z"></path>
<path  d="M16.059 7.782c-4.539 0.002-8.218 3.682-8.219 8.221v0c0 0 0 0.001 0 0.002 0 4.541 3.681 8.222 8.222 8.222s8.222-3.681 8.222-8.222c0-4.541-3.681-8.222-8.222-8.222-0.001 0-0.001 0-0.002 0h0zM16.059 21.334c-2.945-0-5.332-2.388-5.332-5.333s2.388-5.333 5.333-5.333c0 0 0.001 0 0.001 0h-0c2.946 0 5.334 2.388 5.334 5.334s-2.388 5.334-5.334 5.334v0zM26.525 7.458c0 1.060-0.86 1.92-1.92 1.92s-1.92-0.86-1.92-1.92v0c0-1.060 0.86-1.92 1.92-1.92s1.92 0.86 1.92 1.92v0z"></path>
</symbol>
<symbol id="icon-tviter" viewBox="0 0 32 32">
<path  d="M32 6.078c-1.1 0.493-2.376 0.857-3.713 1.028l-0.068 0.007c1.36-0.817 2.382-2.078 2.873-3.579l0.013-0.046c-1.198 0.722-2.591 1.273-4.076 1.573l-0.084 0.014c-1.2-1.279-2.9-2.076-4.787-2.076-3.622 0-6.558 2.936-6.558 6.558 0 0.001 0 0.003 0 0.004v-0c0 0.52 0.043 1.021 0.152 1.496-5.454-0.266-10.28-2.88-13.522-6.861-0.564 0.949-0.899 2.092-0.902 3.313v0.001c0 2.272 1.171 4.286 2.914 5.451-1.091-0.030-2.107-0.325-2.994-0.823l0.033 0.017v0.072c0.003 3.165 2.236 5.807 5.213 6.44l0.043 0.008c-0.499 0.136-1.071 0.215-1.662 0.215-0.020 0-0.041-0-0.061-0l0.003 0c-0.419 0-0.843-0.024-1.242-0.112 0.85 2.598 3.261 4.509 6.13 4.57-2.215 1.746-5.046 2.8-8.123 2.8-0.004 0-0.008 0-0.012 0h0.001c-0.538 0-1.053-0.026-1.57-0.091 2.827 1.846 6.287 2.944 10.004 2.944 0.021 0 0.042-0 0.063-0h-0.003c12.072 0 18.672-10 18.672-18.669 0-0.288-0.010-0.57-0.024-0.848 1.299-0.936 2.391-2.065 3.258-3.356l0.030-0.047z"></path>
</symbol>
<symbol id="icon-facebook" viewBox="0 0 32 32">
<path  d="M21.328 5.312h2.923v-5.088c-1.232-0.143-2.66-0.224-4.108-0.224-0.052 0-0.104 0-0.156 0l0.008-0c-4.213 0-7.099 2.65-7.099 7.52v4.48h-4.646v5.688h4.646v14.312h5.699v-14.31h4.459l0.707-5.688h-5.168v-3.922c0-1.643 0.443-2.768 2.734-2.768z"></path>
</symbol>
<symbol id="icon-linkedin" viewBox="0 0 32 32">
<path  d="M31.992 32h0.008v-11.738c0-5.741-1.237-10.163-7.947-10.163-3.227 0-5.392 1.77-6.277 3.45h-0.093v-2.914h-6.365v21.363h6.627v-10.578c0-2.786 0.528-5.48 3.978-5.48 3.398 0 3.448 3.179 3.448 5.658v10.402h6.621zM0.528 10.635h6.635v21.365h-6.635v-21.365zM3.843 0c-2.123 0-3.843 1.721-3.843 3.843v0c0 2.12 1.722 3.878 3.843 3.878 2.12 0 3.842-1.757 3.842-3.878s-1.72-3.841-3.841-3.843h-0z"></path>
</symbol>
<symbol id="icon-envelope" viewBox="0 0 43 32">
<path  d="M38.67 0.005h-34.669c-2.206 0-4 1.794-4 4v24.002c0 2.206 1.794 4 4 4h34.669c2.206 0 4-1.794 4-4v-24.002c0-2.206-1.794-4-4-4zM38.67 2.672c0.181 0 0.353 0.038 0.511 0.103l-17.845 15.467-17.845-15.467c0.151-0.065 0.327-0.103 0.511-0.103h34.669zM38.67 29.34h-34.669c-0.736-0.001-1.333-0.597-1.333-1.333v-22.415l17.794 15.422c0.233 0.202 0.539 0.326 0.874 0.326s0.641-0.123 0.876-0.327l-0.002 0.001 17.794-15.422v22.414c0 0.736-0.598 1.333-1.333 1.333z"></path>
</symbol>
<symbol id="icon-smartphone" viewBox="0 0 20 32">
<path  d="M17.003 0h-14.005c-1.655 0-3.001 1.346-3.001 3.001v26.009c0 1.655 1.346 3.001 3.001 3.001h14.005c1.655 0 3.001-1.346 3.001-3.001v-26.009c0-1.655-1.346-3.001-3.001-3.001zM2.998 2.001h14.005c0.552 0 1 0.448 1 1v0 21.007h-16.006v-21.007c0-0.552 0.448-1 1-1v0zM17.003 30.011h-14.005c-0.552 0-1-0.448-1-1v0-3.001h16.006v3.001c0 0.552-0.448 1-1 1v0z"></path>
<path  d="M4.705 27.488c0.391 0.365 0.391 0.956 0 1.321s-1.024 0.365-1.415 0c-0.391-0.365-0.391-0.956 0-1.321s1.024-0.365 1.415 0z"></path>
</symbol>
<symbol id="icon-antenna" viewBox="0 0 32 32">
<path fill="#212121" style="fill: var(--color3, #212121)" d="M30.784 22.106l-8.446-8.508 0.937-4.617c0.242 0.094 0.499 0.144 0.758 0.146h0.006c0.008 0 0.017 0 0.026 0 1.193 0 2.16-0.967 2.16-2.16s-0.967-2.16-2.16-2.16c-1.193 0-2.16 0.967-2.16 2.16 0 0.26 0.046 0.509 0.13 0.739l-0.005-0.015-4.962 0.605-8.094-8.136c-0.096-0.098-0.229-0.159-0.377-0.16h-0c-0.146 0.001-0.277 0.060-0.373 0.155l0-0-1.514 1.505c-0.096 0.097-0.156 0.23-0.156 0.377s0.060 0.281 0.156 0.377v0l0.814 0.826c-1.143 2.063-1.816 4.524-1.816 7.142 0 4.107 1.656 7.827 4.337 10.529l-0.001-0.001c0.041 0.040 0.090 0.073 0.143 0.097l0.003 0.001c-0.034 0.18-0.051 0.364-0.052 0.547v6.189h-6.402c-1.473 0.002-2.666 1.195-2.668 2.668v1.068c0 0.295 0.239 0.533 0.533 0.533h24.542c0.294 0 0.533-0.239 0.533-0.533v0-1.067c-0.002-1.473-1.195-2.666-2.668-2.668h-6.402v-2.743c0.916 0.201 1.968 0.317 3.048 0.32h0.002c2.581-0.003 5.006-0.663 7.12-1.822l-0.077 0.039 0.818 0.823c0.096 0.098 0.229 0.159 0.377 0.16h0c0.146-0.001 0.277-0.060 0.373-0.155l-0 0 1.514-1.505c0.096-0.097 0.156-0.23 0.156-0.377s-0.060-0.281-0.156-0.377v0zM23.288 6.235c0.193-0.192 0.458-0.31 0.752-0.31 0.589 0 1.066 0.477 1.066 1.066s-0.477 1.066-1.066 1.066h-0.003c-0.587-0.003-1.061-0.48-1.061-1.067 0-0.295 0.12-0.563 0.314-0.756l0-0h-0.002zM22.032 9.741l-0.598 2.947-1.175-1.182 1.775-1.764zM21.427 8.839l-1.921 1.91-1.486-1.494 3.406-0.415zM24.013 28.81c0.884 0 1.601 0.717 1.601 1.601v0 0.533h-23.475v-0.533c0-0.884 0.717-1.601 1.601-1.601v0h20.274zM16.543 26.676v1.067h-5.335v-1.067h5.335zM11.208 25.609v-4.054c0-1.294 1.196-2.348 2.668-2.348s2.668 1.053 2.668 2.348v4.054h-5.335zM17.61 23.913v-2.358c0-1.883-1.676-3.414-3.734-3.414-0.017-0-0.038-0-0.058-0-1.353 0-2.541 0.707-3.215 1.771l-0.009 0.016c-2.361-2.483-3.813-5.848-3.813-9.553 0-2.315 0.567-4.497 1.569-6.416l-0.036 0.077 18.609 18.715c-1.823 0.947-3.981 1.503-6.268 1.503-1.079 0-2.13-0.124-3.138-0.358l0.093 0.018zM28.903 23.228l-21.064-21.189 0.755-0.752 7.938 7.983c0.004 0 0.006 0.007 0.010 0.010l13.12 13.196-0.757 0.752z"></path>
<path fill="#2196f3" style="fill: var(--color4, #2196f3)" d="M13.881 20.274h-0.005c-0.001 0-0.001 0-0.002 0-0.884 0-1.601 0.717-1.601 1.601s0.715 1.599 1.598 1.601h0.005c0.001 0 0.001 0 0.002 0 0.884 0 1.601-0.717 1.601-1.601s-0.715-1.599-1.598-1.601h-0zM14.254 22.253c-0.094 0.084-0.218 0.135-0.355 0.135-0.295 0-0.534-0.239-0.534-0.534 0-0.137 0.052-0.263 0.137-0.358l-0 0c0.096-0.095 0.227-0.154 0.373-0.155h0c0.294 0 0.532 0.238 0.532 0.532 0 0.148-0.061 0.283-0.159 0.379l-0 0h0.005z"></path>
</symbol>
<symbol id="icon-astronaut" viewBox="0 0 32 32">
<path fill="#2196f3" style="fill: var(--color4, #2196f3)" d="M31.985 4.526c-0.064-0.191-0.227-0.332-0.427-0.363l-0.003-0-1.911-0.278-0.855-1.732c-0.179-0.365-0.777-0.365-0.956 0l-0.855 1.732-1.911 0.278c-0.259 0.040-0.456 0.262-0.456 0.529 0 0.149 0.061 0.284 0.159 0.381l0 0 1.384 1.348-0.326 1.904c-0.034 0.2 0.048 0.402 0.212 0.522 0.087 0.064 0.195 0.102 0.313 0.102 0.091 0 0.177-0.023 0.252-0.064l-0.003 0.001 1.71-0.899 1.71 0.899c0.072 0.038 0.156 0.060 0.246 0.060 0.296 0 0.536-0.24 0.536-0.536 0-0.031-0.003-0.061-0.008-0.090l0 0.003-0.326-1.904 1.384-1.348c0.099-0.097 0.161-0.233 0.161-0.383 0-0.059-0.009-0.115-0.027-0.168l0.001 0.004zM29.521 5.853c-0.099 0.097-0.161 0.232-0.161 0.382 0 0.032 0.003 0.063 0.008 0.093l-0-0.003 0.191 1.114-1-0.526c-0.072-0.039-0.158-0.062-0.249-0.062s-0.177 0.023-0.252 0.063l0.003-0.001-1.001 0.526 0.191-1.114c0.005-0.027 0.008-0.058 0.008-0.090 0-0.15-0.061-0.285-0.161-0.382l-0-0-0.81-0.789 1.119-0.163c0.178-0.026 0.325-0.137 0.401-0.289l0.001-0.003 0.5-1.013 0.5 1.013c0.078 0.155 0.225 0.265 0.399 0.292l0.003 0 1.119 0.163-0.809 0.789zM26.143 20.529h-1.067v1.067h1.067v-1.067zM26.143 22.664h-1.067v1.067h1.067v-1.067zM27.21 21.597h-1.067v1.067h1.067v-1.067zM25.076 21.597h-1.067v1.067h1.067v-1.067zM22.408 26.398h-1.067v1.067h1.067v-1.067zM22.408 28.532h-1.067v1.067h1.067v-1.067zM23.475 27.466h-1.067v1.067h1.067v-1.067zM21.341 27.466h-1.067v1.067h1.067v-1.067zM16.006 24.265h-1.067v1.067h1.067v-1.067zM16.006 26.398h-1.067v1.067h1.067v-1.067zM17.073 25.331h-1.067v1.067h1.067v-1.067zM14.938 25.331h-1.067v1.067h1.067v-1.067zM5.869 6.124h-1.067v1.067h1.067v-1.067zM5.869 8.258h-1.067v1.067h1.067v-1.067z"></path>
<path fill="#2196f3" style="fill: var(--color4, #2196f3)" d="M6.935 7.192h-1.067v1.067h1.067v-1.067zM4.802 7.192h-1.067v1.067h1.067v-1.067z"></path>
<path fill="#212121" style="fill: var(--color3, #212121)" d="M24.724 14.164c-0.28-0.377-0.699-0.636-1.179-0.704l-0.009-0.001c-0.076-0.012-0.164-0.018-0.254-0.018-0.411 0-0.789 0.139-1.090 0.373l0.004-0.003-1.252 0.96-1.899 1.418-1.358-0.541c2.422-1.086 4.115-3.509 4.115-6.322 0-3.824-3.124-6.935-6.963-6.935s-6.963 3.111-6.963 6.935c0 0 0 0.001 0 0.001 0 1.398 0.418 2.699 1.136 3.783l-0.016-0.025-2.77-0.024c-0.009 0-0.015 0.004-0.023 0.005-0.056 0.002-0.109 0.014-0.159 0.032l0.004-0.001-0.038 0.013c-0.006 0.003-0.013 0.003-0.019 0.006l-3.235 1.598-1.894 0.911c-0.024 0.011-0.045 0.023-0.064 0.036l0.001-0.001c-0.482 0.323-0.795 0.866-0.795 1.482 0 0.297 0.073 0.577 0.201 0.823l-0.005-0.010c0.22 0.429 0.595 0.745 1.056 0.889 0.161 0.053 0.346 0.083 0.538 0.083 0.308 0 0.597-0.078 0.85-0.216l-0.009 0.005 1.389-0.738 2.265-1.169 1.357-0.008-6.785 6.752c-0.316 0.315-0.49 0.732-0.49 1.178s0.174 0.863 0.49 1.179c0.325 0.323 0.752 0.485 1.179 0.485s0.854-0.162 1.18-0.485l1.314-1.309 1.742-1.3 0.901 0.897-3.104 3.089c-0.316 0.315-0.49 0.732-0.49 1.178s0.174 0.863 0.49 1.179c0.325 0.323 0.753 0.485 1.18 0.485s0.855-0.162 1.18-0.485l3.484-3.47 1.010-1-0.004-0.004c0.006-0.006 0.015-0.009 0.022-0.015l5.168-5.66 3.472 0.494c0.020 0.003 0.044 0.005 0.068 0.005 0.070 0 0.137-0.014 0.197-0.039l-0.003 0.001c0.018-0.006 0.033-0.015 0.050-0.023 0.019-0.010 0.039-0.015 0.058-0.027l3.214-2.134c0.012-0.008 0.018-0.021 0.029-0.029 0.013-0.010 0.029-0.014 0.041-0.026l1.271-1.191c0.662-0.62 0.753-1.636 0.212-2.363zM2.131 17.776c-0.098 0.054-0.215 0.086-0.34 0.086-0.078 0-0.153-0.012-0.223-0.036l0.005 0.001c-0.294-0.094-0.503-0.365-0.503-0.684 0-0.235 0.113-0.444 0.288-0.575l0.002-0.001 1.314-0.632 0.449 1.312-0.992 0.528zM5.63 15.948l-1.549 0.8-0.439-1.283 2.028-1.001-0.040 1.485zM20.734 9.325c-0.001 0.933-0.222 1.813-0.614 2.593l0.015-0.033-4.183-1.9c-0.044-0.575-0.343-1.073-0.782-1.385l-0.006-0.004 1.465-4.862c2.379 0.756 4.106 2.975 4.106 5.59zM8.941 9.325c0-3.236 2.645-5.869 5.896-5.869 0.253 0 0.5 0.021 0.745 0.052l-1.432 4.756c-0.019-0.001-0.037-0.006-0.057-0.006-1.033 0-1.874 0.837-1.874 1.868s0.84 1.868 1.874 1.868c0.694 0 1.294-0.383 1.619-0.945l3.863 1.756c-1.086 1.457-2.803 2.39-4.739 2.391h-0c-3.251 0-5.896-2.633-5.896-5.869zM14.899 10.126c0 0.441-0.362 0.8-0.806 0.8s-0.806-0.359-0.806-0.8c0-0.441 0.362-0.8 0.806-0.8s0.806 0.359 0.806 0.8zM2.466 25.155c-0.11 0.109-0.261 0.176-0.428 0.176s-0.317-0.067-0.427-0.175l0 0c-0.109-0.108-0.177-0.257-0.177-0.422s0.068-0.315 0.177-0.422l0-0 0.962-0.958 0.851 0.848-0.959 0.955zM5.681 28.89c-0.11 0.109-0.261 0.176-0.428 0.176s-0.317-0.067-0.427-0.175l0 0c-0.109-0.108-0.177-0.257-0.177-0.422s0.068-0.315 0.177-0.422l0-0 0.963-0.959 0.852 0.848-0.96 0.955zM9.163 25.42l-0.002 0.001-1.766 1.761-0.852-0.848 1.766-1.757c0.040-0.040 0.065-0.088 0.090-0.135 0.007-0.014 0.020-0.026 0.026-0.040 0.017-0.041 0.019-0.085 0.026-0.129 0.003-0.025 0.014-0.047 0.014-0.073 0-0.036-0.013-0.070-0.020-0.106-0.006-0.032-0.006-0.065-0.019-0.095-0.025-0.053-0.055-0.098-0.091-0.139l0 0c-0.010-0.012-0.014-0.027-0.025-0.038h-0.001l-0.001-0.002-1.608-1.601c-0.017-0.017-0.039-0.024-0.058-0.038-0.025-0.021-0.054-0.040-0.084-0.057l-0.003-0.001c-0.026-0.013-0.057-0.024-0.089-0.032l-0.004-0.001c-0.030-0.009-0.065-0.017-0.101-0.020l-0.002-0c-0.006-0-0.014-0-0.021-0-0.026 0-0.052 0.002-0.076 0.006l0.003-0c-0.039 0.004-0.074 0.011-0.108 0.021l0.004-0.001c-0.036 0.013-0.067 0.028-0.096 0.046l0.002-0.001c-0.020 0.011-0.042 0.015-0.061 0.029l-1.774 1.324-0.901-0.897 2.4-2.387 4.363 4.291-0.928 0.919zM15.985 18.401c-0.015-0.002-0.030 0.004-0.045 0.003-0.006-0-0.013-0-0.020-0-0.103 0-0.2 0.028-0.282 0.077l0.003-0.001c-0.031 0.018-0.059 0.039-0.083 0.061l0-0c-0.013 0.011-0.028 0.017-0.040 0.029l-4.7 5.148-4.33-4.258 2.834-2.819c0.096-0.097 0.156-0.23 0.156-0.377 0-0.295-0.239-0.534-0.534-0.534-0 0-0.001 0-0.001 0h0v-0.001l-2.22 0.013 0.028-1.608 3.105 0.027c1.264 1.297 3.028 2.102 4.979 2.102 0.001 0 0.002 0 0.004 0h-0c0.437 0 0.864-0.045 1.279-0.123 0.040 0.032 0.079 0.065 0.13 0.085l2.411 0.96 0.331 1.645-3.004-0.427zM20.027 18.579l-0.313-1.559 1.447-1.080 0.947 1.257-2.081 1.381zM23.782 15.747l-0.838 0.785-0.931-1.236 0.831-0.637c0.122-0.093 0.277-0.15 0.445-0.15 0.035 0 0.069 0.002 0.102 0.007l-0.004-0c0.198 0.028 0.367 0.132 0.479 0.282l0.001 0.002c0.088 0.117 0.141 0.266 0.141 0.426 0 0.205-0.087 0.391-0.226 0.521l-0 0z"></path>
<path fill="#212121" style="fill: var(--color3, #212121)" d="M13.607 18.551l-2.144-2.134c-0.097-0.096-0.23-0.155-0.377-0.155s-0.28 0.059-0.377 0.155l0-0-2.143 2.134c-0.096 0.097-0.156 0.231-0.156 0.378s0.059 0.281 0.156 0.378l-0-0 2.143 2.134c0.097 0.096 0.23 0.155 0.377 0.155s0.28-0.059 0.377-0.155l-0 0 2.144-2.134c0.097-0.097 0.156-0.23 0.156-0.378s-0.060-0.281-0.156-0.378v0zM11.087 20.31l-1.387-1.381 1.387-1.381 1.387 1.381-1.387 1.381zM17.17 5.073l-0.258 1.036c0.071 0.018 1.739 0.452 1.739 2.15h1.067c0-2.018-1.667-2.966-2.548-3.186zM19.718 9.325h-1.067v1.067h1.067v-1.067z"></path>
</symbol>
<symbol id="icon-clock" viewBox="0 0 32 32">
<path fill="#212121" style="fill: var(--color3, #212121)" d="M31.308 15.306c-0.002-8.455-6.857-15.308-15.313-15.306s-15.308 6.857-15.306 15.313c0.001 6.79 4.423 12.548 10.545 14.551l0.108 0.031c0.057 0.018 0.123 0.028 0.191 0.028 0.125 0 0.242-0.035 0.341-0.095l-0.003 0.002c0.134-0.080 0.234-0.204 0.282-0.352l0.001-0.005 3.866-12.254c1.052-0.006 1.901-0.86 1.901-1.913 0-1.056-0.856-1.913-1.913-1.913-0.302 0-0.587 0.070-0.84 0.194l0.011-0.005-5.108-5.109c-0.115-0.115-0.275-0.187-0.451-0.187-0.352 0-0.638 0.286-0.638 0.638 0 0.176 0.071 0.336 0.187 0.451v0l5.105 5.111c-0.121 0.241-0.192 0.525-0.192 0.826 0 0.602 0.283 1.137 0.724 1.481l0.004 0.003-3.684 11.677c-7.281-2.682-11.008-10.758-8.326-18.038s10.758-11.008 18.038-8.326 11.008 10.758 8.326 18.038c-1.345 3.582-4.005 6.408-7.377 7.94l-0.088 0.036-0.398-1.875c-0.063-0.291-0.319-0.505-0.624-0.505-0.163 0-0.312 0.061-0.425 0.162l0.001-0.001-3.838 3.427c-0.132 0.117-0.214 0.287-0.214 0.477 0 0.283 0.185 0.524 0.441 0.606l0.005 0.001 4.901 1.564c0.058 0.019 0.125 0.030 0.195 0.030 0.352 0 0.638-0.286 0.638-0.638 0-0.047-0.005-0.093-0.015-0.137l0.001 0.004-0.391-1.84c5.53-2.375 9.332-7.774 9.332-14.062 0-0.011 0-0.023-0-0.034v0.002zM15.998 14.669c0.353 0 0.639 0.286 0.639 0.639s-0.286 0.639-0.639 0.639v0c-0.353 0-0.639-0.286-0.639-0.639s0.286-0.639 0.639-0.639v0zM18.099 29.538l2.185-1.949 0.603 2.841-2.788-0.892z"></path>
<path fill="#2196f3" style="fill: var(--color4, #2196f3)" d="M15.359 3.186v1.275c0 0.352 0.286 0.638 0.638 0.638s0.638-0.286 0.638-0.638v-1.275c0-0.352-0.286-0.638-0.638-0.638s-0.638 0.286-0.638 0.638v0zM3.877 14.669c-0.352 0-0.638 0.286-0.638 0.638s0.286 0.638 0.638 0.638h1.275c0.352 0 0.638-0.286 0.638-0.638s-0.286-0.638-0.638-0.638h-1.275zM28.118 15.945c0.352 0 0.638-0.286 0.638-0.638s-0.286-0.638-0.638-0.638h-1.275c-0.352 0-0.638 0.286-0.638 0.638s0.286 0.638 0.638 0.638h1.275z"></path>
</symbol>
<symbol id="icon-diagram" viewBox="0 0 32 32">
<path fill="#2196f3" style="fill: var(--color4, #2196f3)" d="M14.931 14.97h1.066v4.8h-1.066v-4.799zM19.197 17.103h1.066v2.666h-1.066v-2.666zM10.665 18.703h1.066v1.066h-1.066v-1.066zM7.466 18.169h1.066v1.6h-1.066v-1.6z"></path>
<path fill="#212121" style="fill: var(--color3, #212121)" d="M1.6 28.301h25.596c0.883-0.001 1.599-0.716 1.6-1.599v-2.133c-0.001-0.883-0.716-1.599-1.599-1.6h-0.533v-13.298l3.029-2.869c0.208 0.105 0.453 0.166 0.712 0.166 0.888 0 1.609-0.72 1.609-1.609s-0.72-1.609-1.609-1.609c-0.888 0-1.609 0.72-1.609 1.609 0 0.247 0.055 0.48 0.155 0.689l-0.004-0.010-2.282 2.164v-1.23c-0.001-0.883-0.716-1.599-1.599-1.6h-21.33c-0.883 0.001-1.599 0.716-1.6 1.599v15.998h-0.533c-0.883 0.001-1.599 0.716-1.6 1.599v2.133c0.001 0.883 0.716 1.599 1.599 1.6h0zM30.395 4.839c0.295 0 0.534 0.239 0.534 0.534s-0.239 0.534-0.534 0.534v0c-0.295 0-0.534-0.239-0.534-0.534s0.239-0.534 0.534-0.534v0zM3.199 6.971c0-0.294 0.239-0.533 0.533-0.533h21.33c0.294 0 0.533 0.239 0.533 0.533v2.24l-1.066 1.013v-2.187c0-0.294-0.239-0.533-0.533-0.533v0h-19.197c-0.294 0-0.533 0.239-0.533 0.533v0 13.331c0 0.294 0.239 0.533 0.533 0.533h19.197c0.294 0 0.533-0.239 0.533-0.533v0-9.677l1.066-1.010v12.288h-22.396v-15.998zM7.999 13.904c-0 0-0.001 0-0.002 0-0.883 0-1.599 0.716-1.599 1.599s0.716 1.599 1.599 1.599c0.431 0 0.822-0.17 1.109-0.448l-0.001 0 1.854 0.93c0.069 0.035 0.151 0.056 0.238 0.056 0.158 0 0.3-0.069 0.398-0.179l0-0.001 3.94-4.433 3.873 2.902c0.088 0.067 0.199 0.107 0.32 0.107 0.142 0 0.271-0.055 0.366-0.146l-0 0 3.366-3.189v8.134h-18.13v-12.264h18.13v2.661l-3.772 3.573-3.905-2.928c-0.088-0.067-0.199-0.107-0.32-0.107-0.158 0-0.3 0.069-0.398 0.178l-0 0.001-3.994 4.495-1.494-0.746c0.011-0.064 0.018-0.129 0.020-0.193-0.001-0.883-0.716-1.599-1.599-1.6h-0zM8.532 15.504c0 0.295-0.239 0.534-0.534 0.534s-0.534-0.239-0.534-0.534v0c0-0.295 0.239-0.534 0.534-0.534s0.534 0.239 0.534 0.534v0zM11.731 24.036h5.333v0.533c0 0.294-0.239 0.533-0.533 0.533v0h-4.265c-0.294 0-0.533-0.239-0.533-0.533v0-0.533zM1.066 24.569c0-0.294 0.239-0.533 0.533-0.533h9.065v0.533c0.001 0.883 0.716 1.599 1.599 1.6h4.266c0.883-0.001 1.599-0.716 1.6-1.599v-0.533h9.065c0.294 0 0.533 0.239 0.533 0.533v2.133c0 0.294-0.239 0.533-0.533 0.533v0h-25.596c-0.294 0-0.533-0.239-0.533-0.533v0-2.133z"></path>
</symbol>
<symbol id="icon-ya-s-co" viewBox="0 0 28 32"><path d="m4.085 0 4.766 4.514H0v21.903h23.149v-8.374l4.766 4.507V0H4.085zm18.86 17.518L9.403 4.711h13.542v12.8zm-4.208 5.706H3.663V8.484h1.069v13.74h14.005v1.001zM7.224 29.345l-.558 1.144-.558-1.144h-.456l.817 1.532v.885h.415v-.885l.817-1.532h-.477zm.701 2.417.191-.558h.94l.204.558h.436l-.919-2.417h-.374l-.919 2.417h.443zm.661-1.907.354 1.008h-.701l.347-1.008zm2.219.953a.544.544 0 0 0-.088.298v.002c0 .204.068.374.211.497.143.129.34.191.579.191s.443-.068.613-.191l.136.157h.477l-.361-.415c.136-.191.204-.436.204-.735h-.34a.952.952 0 0 1-.109.443l-.463-.545.163-.129a.802.802 0 0 0 .252-.252.53.53 0 0 0-.095-.66.612.612 0 0 0-.409-.157h-.02.001l-.039-.001a.644.644 0 0 0-.432.165l.001-.001a.589.589 0 0 0-.171.416l.001.034v-.002c0 .082.02.163.054.245s.102.184.197.3c-.141.094-.26.207-.358.337l-.003.004zm1.089.532a.608.608 0 0 1-.381.136l-.02.001a.394.394 0 0 1-.266-.103.362.362 0 0 1-.109-.259v-.014.001c0-.136.068-.245.204-.347l.048-.041.524.626zm-.428-1.076c-.116-.136-.17-.252-.17-.347 0-.082.02-.15.068-.204a.24.24 0 0 1 .174-.075h.011-.001c.075 0 .136.02.184.068a.196.196 0 0 1 .068.157.309.309 0 0 1-.102.238l-.048.041-.184.123zm3.935 1.321c.17-.15.266-.347.286-.613h-.415c-.02.177-.075.3-.157.374-.088.075-.204.109-.374.109h-.021a.47.47 0 0 1-.387-.203l-.001-.002c-.095-.136-.143-.34-.143-.599v-.211c0-.259.048-.456.15-.586a.484.484 0 0 1 .422-.204c.157 0 .272.041.354.116s.136.204.157.374h.415a.906.906 0 0 0-.279-.612.929.929 0 0 0-.601-.219l-.049.001h.002c-.204 0-.374.048-.524.136a.927.927 0 0 0-.347.409c-.082.17-.123.374-.123.599v.232c0 .218.041.415.123.586s.191.3.34.388a.93.93 0 0 0 .511.136c.272 0 .497-.068.66-.211zm2.471-.341c.082-.184.123-.388.123-.626v-.136c0-.238-.041-.443-.123-.613a.927.927 0 0 0-.85-.559l-.037.001h.002a.92.92 0 0 0-.871.558 1.507 1.507 0 0 0-.129.626v.136c0 .232.048.436.129.613s.204.313.354.409a.999.999 0 0 0 .524.143c.204 0 .374-.048.531-.136a.943.943 0 0 0 .347-.415zm-.449-1.368c.102.136.157.347.157.613v.129c0 .272-.054.477-.157.62a.49.49 0 0 1-.403.212l-.027-.001h.001-.019a.502.502 0 0 1-.409-.21l-.001-.002a1.048 1.048 0 0 1-.159-.556l.002-.066v.003-.136c0-.266.054-.463.157-.613a.495.495 0 0 1 .43-.204h-.001c.184 0 .327.068.429.204z"/></symbol>
<symbol id="icon-company-t-h" viewBox="0 0 25 32"><path d="M10.529 1.803h-.08l-.388-.012H9.718c-.26 0-.519.007-.776.02l.036-.002c-2.24.123-4.431.689-6.468 1.649l-.265.129v13.625l.622-.209c1.995-.718 4.297-1.147 6.695-1.175h.013v1.791l-.652.018h-.049a19.837 19.837 0 0 0-8.503 2.421l.103-.052V2.523A17.872 17.872 0 0 1 5.141.612l.127-.027A17.924 17.924 0 0 1 9.774 0h.27c1.123.004 2.21.149 3.247.42l-.09-.02v1.766a13.221 13.221 0 0 0-2.132-.33l-.046-.003h-.043c-.154-.012-.308-.031-.449-.031zm3.102 1.803a19.382 19.382 0 0 0 6.085-.596l-.135.03a19.547 19.547 0 0 0 4.667-1.829l-.101.051v17.163a17.947 17.947 0 0 1-4.667 1.923l-.127.028a18.63 18.63 0 0 1-4.511.578h-.105c-1.18 0-2.325-.148-3.419-.427l.095.021V3.274c.639.156 1.396.274 2.17.33l.046.003zm8.738.136-.622.209c-2.067.744-4.451 1.174-6.936 1.174-.389 0-.776-.011-1.16-.031l.054.002-.505-.031v14.012l.431.037a16.602 16.602 0 0 0 5.407-.499l-.115.026a17.04 17.04 0 0 0 3.277-1.195l-.101.045.271-.123V3.743zM1.686 25.975a.922.922 0 0 0-.66-.278l-.037.001h.002c-.135 0-.271.025-.4.074a.926.926 0 0 0-.585.907v-.002 2.338c0 .16.025.326.092.474a.997.997 0 0 0 .234.314c.092.08.203.135.32.166s.234.049.351.049a.984.984 0 0 0 .966-.984v-.258h-.615v.203a.393.393 0 0 1-.031.209.377.377 0 0 1-.086.135.42.42 0 0 1-.252.086.307.307 0 0 1-.289-.122l-.001-.001a.55.55 0 0 1-.086-.297v-.018.001-2.178c0-.123.025-.24.08-.345a.307.307 0 0 1 .297-.142H.985h.011c.106 0 .2.05.26.129l.001.001a.492.492 0 0 1 .105.303v.213h.603v-.248c0-.281-.105-.537-.278-.732l.001.001zm3.625-.024a1.082 1.082 0 0 0-1.066-.188l.008-.002a.966.966 0 0 0-.32.185 1.024 1.024 0 0 0-.24.332 1.032 1.032 0 0 0-.086.455v2.234c-.006.16.025.314.086.462a.784.784 0 0 0 .24.308c.092.092.197.16.32.203a1.055 1.055 0 0 0 .733-.003l-.007.002a.955.955 0 0 0 .648-.904l-.002-.066v.003-2.24l.001-.043a1.01 1.01 0 0 0-.32-.738l-.001-.001zm-.283 3.015a.39.39 0 0 1-.123.326.447.447 0 0 1-.573-.001l.001.001a.399.399 0 0 1-.125-.29l.002-.038v.002-2.234a.39.39 0 0 1 .123-.326.447.447 0 0 1 .573.001l-.001-.001a.399.399 0 0 1 .125.29l-.002.038v-.002 2.234zm5.046 1.003v-4.246h-.591l-.769 2.246h-.012l-.775-2.246h-.578v4.24h.603v-2.585h.012l.591 1.828h.308l.597-1.822h.006v2.578h.609zm3.44-3.938a.776.776 0 0 0-.345-.234 1.313 1.313 0 0 0-.421-.068h-.915v4.24h.603v-1.662h.308c.191.012.375-.025.548-.111.244-.153.417-.4.467-.689l.001-.006a3.03 3.03 0 0 0-.029-1.103l.004.02a.908.908 0 0 0-.222-.394zm-.308 1.292a.532.532 0 0 1-.062.215.325.325 0 0 1-.154.148.605.605 0 0 1-.269.062H12.43v-1.446h.308c.098 0 .185.012.277.055a.314.314 0 0 1 .142.154c.03.069.048.149.049.233v.579zm3.163-1.594h-.492l-.923 4.24h.603l.178-.911h.818l.185.911h.597l-.954-4.24zm-.554 2.751.302-1.538h.006l.295 1.538h-.603zm4.462-.197h-.012l-.911-2.554h-.578v4.24h.603v-2.548h.012l.917 2.548h.566v-4.246h-.603v2.554zm3.692-2.554-.492 1.686h-.006l-.492-1.686h-.634l.831 2.449v1.785h.603v-1.785l.831-2.449h-.64zM0 31.163h.289v.818h.203v-.818h.289v-.166h-.782v.166zm2.449-.166-.382.985h.209l.08-.222h.394l.08.222h.215l-.388-.985h-.209zm-.031.597.129-.369.135.369h-.265zm2.444.024h.234v.123a.375.375 0 0 1-.234.086l-.017.001a.245.245 0 0 1-.192-.092.406.406 0 0 1-.074-.236l.001-.023v.001c0-.215.092-.326.283-.326l.02-.001a.21.21 0 0 1 .202.153v.001l.197-.037c-.043-.191-.185-.289-.418-.289h-.019a.493.493 0 0 0-.327.124.48.48 0 0 0-.141.383v-.002c0 .135.037.271.123.369a.479.479 0 0 0 .347.149l.03-.001h-.001a.608.608 0 0 0 .418-.16v-.388h-.431v.166zm2.473-.621h-.197v.985h.689v-.166h-.492v-.818zm2.093 0h-.203v.985h.203v-.985zm2.043.658-.406-.658h-.191v.985h.185v-.64l.394.64h.197v-.985h-.185v.658zm1.846-.104h.492v-.166h-.492v-.222h.523v-.166h-.726v.985h.751v-.166h-.554v-.265zm4.474-.166h-.388v-.388h-.197v.985h.197v-.431h.388v.431h.197v-.985h-.197v.388zm1.858.166h.492v-.166h-.492v-.222h.529v-.166h-.726v.985h.745v-.166h-.548v-.265zm2.517 0c.172-.031.258-.123.258-.277a.23.23 0 0 0-.091-.215h-.001a.55.55 0 0 0-.256-.063l-.035.001h.002-.418v.985h.197v-.412h.037c.043 0 .086.006.123.025.031.018.062.043.074.074l.215.308h.234l-.123-.185a.638.638 0 0 0-.215-.246zm-.197-.136h-.148v-.246h.154a.569.569 0 0 1 .203.018.122.122 0 0 1-.005.202.558.558 0 0 1-.168.026l-.037-.001h.002zm2.099.136h.492v-.166h-.492v-.222h.529v-.166h-.726v.985h.745v-.166h-.548v-.265z"/></symbol>
<symbol id="icon-company" viewBox="0 0 34 32"><path d="m5.638 31.314.038.008.03.015.168.16c-.13.13-.29.229-.465.305a1.822 1.822 0 0 1-.663.107c-.213 0-.427-.03-.625-.099a1.278 1.278 0 0 1-.766-.715l-.003-.008a1.459 1.459 0 0 1 .004-1.145l-.004.01a1.39 1.39 0 0 1 .328-.442 1.38 1.38 0 0 1 .495-.282 1.92 1.92 0 0 1 .644-.109c.214 0 .42.034.612.098l-.014-.004c.16.061.312.152.442.259l-.137.168a.152.152 0 0 1-.037.03h-.001a.094.094 0 0 1-.053.015H5.63a.136.136 0 0 1-.061-.023l-.076-.046-.099-.053a1.16 1.16 0 0 0-.525-.123l-.057.001h.003c-.152 0-.312.023-.457.076a.988.988 0 0 0-.592.55l-.002.006c-.057.13-.091.282-.091.442 0 .152.03.312.084.457a.951.951 0 0 0 .572.547l.007.002c.137.046.282.076.427.076l.251-.015c.212-.023.4-.108.55-.237l-.001.001a.128.128 0 0 1 .076-.03zm4.8-.8c0 .198-.03.381-.107.564a1.42 1.42 0 0 1-.312.434c-.145.13-.305.229-.495.29a1.998 1.998 0 0 1-1.265 0 1.451 1.451 0 0 1-.489-.291l.001.001a1.276 1.276 0 0 1-.309-.434l-.003-.008a1.432 1.432 0 0 1 0-1.12c.076-.168.175-.312.312-.442.145-.122.305-.213.488-.282a1.998 1.998 0 0 1 1.278.004l-.014-.004c.183.069.35.168.495.29.258.238.42.577.42.955l-.001.046v-.002zm-.434 0a1.31 1.31 0 0 0-.076-.45.934.934 0 0 0-.565-.547l-.007-.002a1.47 1.47 0 0 0-.924.003l.01-.003a1.004 1.004 0 0 0-.359.214l.001-.001a.905.905 0 0 0-.226.329l-.002.006c-.099.297-.099.61 0 .907a.92.92 0 0 0 .573.547l.006.002c.297.091.625.091.914 0a1.12 1.12 0 0 0 .358-.213.954.954 0 0 0 .221-.335c.053-.152.076-.305.076-.457zm3.71.473.046.107.046-.107.053-.099 1.067-1.676c.015-.023.038-.046.053-.046a.267.267 0 0 1 .091-.015h.312v2.728h-.373V29.7l-1.067 1.699a.153.153 0 0 1-.06.061h-.001a.19.19 0 0 1-.09.023h-.065a.176.176 0 0 1-.089-.023h.001a.153.153 0 0 1-.061-.06v-.001l-1.097-1.714v2.194h-.366v-2.728h.32c.03 0 .053 0 .084.015a.119.119 0 0 1 .061.046l1.082 1.676.053.099zm3.993-.13v1.021h-.411V29.15h.922c.175 0 .35.023.518.061.137.03.259.091.366.168a.782.782 0 0 1 .213.267.805.805 0 0 1 .069.35v.008a.761.761 0 0 1-.303.608l-.002.001a.93.93 0 0 1-.366.183 1.698 1.698 0 0 1-.486.069h-.018.001l-.503-.008zm0-.297h.503c.114 0 .221-.008.328-.038a.705.705 0 0 0 .23-.123l-.001.001a.524.524 0 0 0 .191-.405v-.007l.001-.029a.456.456 0 0 0-.04-.188l.001.003a.544.544 0 0 0-.151-.19l-.001-.001a.91.91 0 0 0-.556-.145h-.503v1.12zm5.584 1.318h-.339a.148.148 0 0 1-.081-.024h.001a.18.18 0 0 1-.053-.06v-.001l-.282-.663H21.12l-.297.663a.152.152 0 0 1-.14.092l-.013-.001h.001-.32l1.25-2.735h.434l1.257 2.728zm-2.057-1.013h1.173l-.495-1.105a1.565 1.565 0 0 1-.088-.246l-.003-.013-.046.145-.046.114-.495 1.105zm3.856-1.699.061.046 1.821 2.057v-2.118h.366v2.728h-.206c-.03 0-.061 0-.084-.015a.226.226 0 0 1-.068-.053l-1.813-2.057v2.126h-.373v-2.728h.229c.015 0 .046 0 .069.015zm5.31 1.63v1.082h-.411v-1.082l-1.15-1.646h.384c.03 0 .058.009.081.024h-.001l.053.061.716 1.067c.045.067.088.145.125.226l.004.01.053-.114.076-.122.701-1.067a.31.31 0 0 1 .053-.061.135.135 0 0 1 .086-.031h.386l-1.158 1.653zm-16.891-6.217.549.046c2.781-1.067 5.093-2.834 6.791-5.089l.028-.039a12.187 12.187 0 0 0 2.423-7.554v.011l-3.093-2.682c.632 2.842.335 5.775-.846 8.48-1.296 2.832-3.301 5.15-5.791 6.789l-.06.037z"/><path d="m12.404 24.457.084.008c2.819-1.752 4.975-4.198 6.171-7.032.682-1.541 1.08-3.339 1.08-5.229 0-1.282-.183-2.522-.524-3.695l.023.093-4.404-3.817c1.372 2.346 2.182 5.166 2.182 8.175 0 .69-.043 1.371-.125 2.038l.008-.08c-.502 3.72-2.121 6.992-4.504 9.541l.009-.01zm14.926-9.348c-.856 3.109-2.689 5.706-5.143 7.508l-.038.027a16.124 16.124 0 0 1-2.453 1.531c2.126-.541 4.084-1.501 5.714-2.804a12.757 12.757 0 0 0 3.67-4.645l.033-.079-1.783-1.539z"/><path d="m26.629 14.674-2.545-2.21a12.722 12.722 0 0 1-2.41 7.161l.026-.037a15.625 15.625 0 0 1-6.121 5.042l-.097.04h.015c.571 0 1.143-.03 1.707-.084 2.417-.853 4.477-2.196 6.144-3.919l.004-.004a12.89 12.89 0 0 0 3.258-5.9l.018-.088zM12.777 3.17 9.745.534c-2.706.891-4.978 2.482-6.677 4.561l-.02.026a11.363 11.363 0 0 0-2.53 7.065v.005a11.5 11.5 0 0 0 3.077 7.695l-.007-.007a14.765 14.765 0 0 0 7.759 4.41l.097.017a16.574 16.574 0 0 0 4.644-10.322l.003-.055a16.096 16.096 0 0 0-3.342-10.796l.028.037zm20.853 11.1c-.008-3.314-1.524-6.476-4.221-8.823A15.5 15.5 0 0 0 19.37 1.782h-.116.006c-1.76 0-3.505.282-5.15.838l18.56 16.114c.604-1.312.958-2.847.96-4.464v-.001z"/></symbol>
<symbol id="icon-foster-peters" viewBox="0 0 65 32"><path d="M10.016 9.983h-.002c-1.827 0-3.308 1.316-3.308 2.94v.002c0 1.624 1.481 2.94 3.308 2.94h.002c1.827 0 3.308-1.317 3.308-2.94v-.002c0-1.624-1.481-2.941-3.308-2.941zm24.418-.939c-.005-2.255-1.016-4.418-2.81-6.012S27.398.539 24.861.534c-2.539.004-4.972.902-6.767 2.497s-2.806 3.757-2.811 6.013v12.437s19.15-1.896 19.152-12.434v-.002zM0 25.562c.005 1.57.709 3.073 1.957 4.183s2.94 1.735 4.706 1.739c1.765-.005 3.457-.63 4.706-1.739s1.952-2.613 1.957-4.181V16.91S.002 18.23.002 25.562zm6.662 1.55c-.345 0-.682-.091-.969-.261a1.617 1.617 0 0 1-.638-.686l-.004-.009a1.394 1.394 0 0 1-.097-.904l-.002.009a1.5 1.5 0 0 1 .477-.794 1.81 1.81 0 0 1 .882-.423l.011-.002a1.939 1.939 0 0 1 1.021.092l-.013-.004c.319.117.592.316.783.571s.294.555.294.861c.001.204-.043.407-.131.596a1.555 1.555 0 0 1-.376.503l-.002.001a1.77 1.77 0 0 1-.567.338 1.907 1.907 0 0 1-.668.119h-.001v-.006zm13.466-.854h-1.286v1.328h-.67v-3.251h2.117v.542h-1.447v.84h1.286v.54zm3.218-.223c0 .32-.056.6-.169.841s-.276.427-.488.558a1.32 1.32 0 0 1-.698.197h-.025.001c-.27 0-.51-.065-.722-.194a1.296 1.296 0 0 1-.487-.546l-.003-.008a1.882 1.882 0 0 1-.177-.804v-.028.001-.16c0-.32.058-.602.172-.844a1.285 1.285 0 0 1 1.212-.757c.271 0 .51.066.721.197.211.13.374.316.489.56.116.242.174.523.174.841v.145zm-.678-.148c0-.341-.061-.6-.183-.777a.596.596 0 0 0-.496-.266l-.028.001h.001l-.025-.001a.597.597 0 0 0-.494.262l-.001.002c-.122.174-.184.43-.185.768v.158c0 .331.061.589.183.772s.297.274.527.274l.026.001a.59.59 0 0 0 .49-.261l.001-.002c.12-.177.181-.434.183-.773v-.158zm2.85.846.001-.019a.34.34 0 0 0-.133-.27l-.001-.001c-.089-.069-.25-.14-.482-.214a3.473 3.473 0 0 1-.57-.232l.019.009c-.37-.2-.554-.469-.554-.806 0-.175.049-.332.147-.469a.975.975 0 0 1 .427-.324c.186-.077.395-.116.625-.116.232 0 .439.042.621.127a.97.97 0 0 1 .421.355.926.926 0 0 1 .152.522h-.67a.434.434 0 0 0-.14-.346c-.094-.084-.226-.125-.395-.125-.164 0-.291.035-.382.105a.325.325 0 0 0-.136.265v.008c0 .106.053.194.158.266.107.071.264.138.471.2.381.114.658.257.833.427s.261.381.261.634c0 .281-.107.503-.32.663s-.498.239-.859.239c-.25 0-.478-.046-.683-.137a1.11 1.11 0 0 1-.469-.373l-.002-.003a.962.962 0 0 1-.16-.533v-.022.001h.671c0 .358.214.538.643.538a.634.634 0 0 0 .373-.096.32.32 0 0 0 .134-.259v-.013.001zm3.574-1.855h-.995v2.708h-.67v-2.708h-.981v-.542h2.647v.542zm2.339 1.3h-1.285v.871h1.509v.538h-2.178v-3.251h2.174v.542h-1.505v.775h1.286v.524zm1.819.218h-.533v1.19h-.67v-3.251h1.208c.384 0 .68.086.888.257s.312.413.312.725a.996.996 0 0 1-.145.556.977.977 0 0 1-.429.35l-.006.002.702 1.328v.03h-.718l-.61-1.189zm-.533-.542h.541c.168 0 .297-.042.39-.126a.46.46 0 0 0 .139-.33l-.001-.026v.001c0-.154-.043-.274-.131-.362s-.219-.132-.4-.132h-.538v.975zm4.058.587v1.145h-.67v-3.251h1.268c.244 0 .459.045.643.134a.98.98 0 0 1 .429.382c.099.164.149.35.149.56 0 .318-.11.57-.328.754-.218.183-.519.275-.904.275h-.587zm0-.542h.598c.178 0 .312-.042.404-.125a.454.454 0 0 0 .141-.357l.001-.024a.534.534 0 0 0-.141-.363.527.527 0 0 0-.389-.152h-.614v1.021zm4.236.279h-1.285v.871h1.509v.538h-2.178v-3.251h2.174v.542h-1.505v.775h1.286v.524zm3.108-1.3h-.996v2.708h-.67v-2.708h-.982v-.542h2.648v.542zm2.339 1.3h-1.285v.871h1.509v.538h-2.179v-3.251h2.174v.542h-1.504v.775h1.285v.524zm1.819.218h-.533v1.19h-.67v-3.251h1.208c.384 0 .68.086.888.257s.312.413.312.725c0 .222-.049.408-.145.556a.982.982 0 0 1-.429.35l-.006.002.703 1.328v.03h-.718l-.61-1.189zm-.533-.542h.54c.168 0 .298-.042.39-.126a.46.46 0 0 0 .139-.331l-.001-.025v.001a.484.484 0 0 0-.132-.362c-.086-.088-.219-.132-.399-.132h-.538v.975zm3.935.88.001-.019a.34.34 0 0 0-.134-.271l-.001-.001c-.089-.069-.25-.14-.482-.214a3.473 3.473 0 0 1-.57-.232l.019.009c-.37-.2-.554-.469-.554-.806 0-.175.05-.332.147-.469a.975.975 0 0 1 .427-.324c.186-.077.395-.116.625-.116.232 0 .439.042.621.127a.97.97 0 0 1 .421.355.926.926 0 0 1 .152.522h-.67a.434.434 0 0 0-.14-.346c-.094-.084-.226-.125-.395-.125-.164 0-.291.035-.382.105a.326.326 0 0 0-.137.265v.007c0 .106.053.194.159.266s.264.138.471.2c.381.114.658.257.833.427s.261.381.261.634c0 .281-.107.503-.32.663s-.499.239-.859.239c-.25 0-.478-.046-.683-.137a1.11 1.11 0 0 1-.469-.373l-.002-.003a.962.962 0 0 1-.16-.533v-.022.001h.671c0 .358.214.538.643.538a.634.634 0 0 0 .373-.096.317.317 0 0 0 .134-.26v-.013.001z"/></symbol>
<symbol id="icon-brand" viewBox="0 0 43 32"><path d="M3.241 26.376a.96.96 0 0 1 .245.66.92.92 0 0 1-.088.463 1.115 1.115 0 0 1-.293.381 1.86 1.86 0 0 1-1.13.306H.001v-4.221h1.934a1.764 1.764 0 0 1 1.082.29l-.007-.004a.947.947 0 0 1 .374.79.899.899 0 0 1-.225.64c-.15.17-.354.286-.586.334.259.041.497.17.667.361zm-2.315-.64h.817a.84.84 0 0 0 .531-.136.41.41 0 0 0 .136-.191.427.427 0 0 0 .041-.225.474.474 0 0 0-.035-.228l.001.003a.532.532 0 0 0-.135-.183l-.001-.001a.848.848 0 0 0-.547-.143h.003H.92v1.103zm1.43 1.621a.545.545 0 0 0 .198-.429l.001-.026a.486.486 0 0 0-.05-.215l.001.003a.548.548 0 0 0-.155-.197l-.001-.001a.904.904 0 0 0-.503-.151l-.058.002h.003H.92V27.5h.885a.859.859 0 0 0 .545-.15zm4.841.83-1.069-1.648h-.409v1.648h-.933v-4.221h1.757a1.826 1.826 0 0 1 1.23.365l-.005-.003a1.264 1.264 0 0 1 .134 1.745l.002-.002a1.482 1.482 0 0 1-.844.429l1.144 1.689H7.196zm-1.478-2.226h.763c.524 0 .79-.204.79-.633l.001-.027a.576.576 0 0 0-.05-.235l.001.004a.645.645 0 0 0-.149-.218.867.867 0 0 0-.595-.17h.003-.776l.007 1.28zm6.543 1.375h-1.845l-.327.851h-.974l1.702-4.174h1.049l1.688 4.174h-.974l-.327-.851zm-.245-.64-.681-1.777-.674 1.777h1.355zm6.584 1.491h-.919l-2.063-2.866v2.86h-.912v-4.208h.919l2.063 2.88v-2.88h.919v4.214zm5.249-1.014c-.191.32-.477.579-.831.749a3.008 3.008 0 0 1-1.294.266h-1.634v-4.221h1.634c.449-.007.892.082 1.294.266.354.163.64.415.831.735.179.318.284.698.284 1.103s-.105.785-.29 1.114l.006-.012zm-1.048-.096c.259-.279.409-.64.409-1.008s-.15-.729-.409-1.008a1.684 1.684 0 0 0-1.163-.354h.005-.633v2.723h.64c.415.027.831-.102 1.151-.354zM12.841.524s11.867 4.099 11.615 10.043V20.61s-11.86-4.106-11.615-10.043V.524zM35.037 18.26a17.007 17.007 0 0 1 7.474-2.541l.069-.005v-3.146c-3.122 1.095-5.703 3.078-7.512 5.644l-.032.048z"/><path d="M33.688 19.2c1.949-3.435 5.056-6.021 8.781-7.253l.111-.032V2.839S25.668 8.701 26.028 17.157v14.298s.749-.259 1.94-.749c0-.463 0-.919.054-1.382a14.5 14.5 0 0 1 5.63-10.092l.035-.026z"/><path d="M32.082 24.517c.089-.987.286-1.974.592-2.928a13.174 13.174 0 0 0-3.581 8.626l-.001.021c.96-.429 2.077-.953 3.254-1.573a13.685 13.685 0 0 1-.266-4.146zm.667.055a13.279 13.279 0 0 0 .211 3.745c4.623-2.526 9.811-6.434 9.614-11.166v-.409a15.777 15.777 0 0 0-8.81 3.775l.02-.017a12.792 12.792 0 0 0-1.024 4.021l-.004.05z"/></symbol>
<symbol id="icon-company-t-l" viewBox="0 0 67 32">
<path d="M33.724 15.223a2.084 2.084 0 0 1-.43-1.42v.006-2.051c0-.628.142-1.106.428-1.433.284-.327.774-.489 1.468-.488.652 0 1.116.139 1.389.417.299.355.444.789.411 1.226v.482h-1.166v-.489a2.465 2.465 0 0 0-.034-.477.464.464 0 0 0-.166-.283l-.001-.001a.672.672 0 0 0-.373-.112l-.052.002h.002a.712.712 0 0 0-.447.118l.003-.002a.546.546 0 0 0-.193.309l-.001.004c-.03.14-.047.302-.047.467v.042-.002 2.488c-.019.24.033.48.149.698a.55.55 0 0 0 .23.168l.004.001a.633.633 0 0 0 .305.039H35.2a.63.63 0 0 0 .414-.114l-.002.001a.503.503 0 0 0 .174-.299v-.003c.027-.165.04-.332.036-.498v-.505h1.167v.461a1.866 1.866 0 0 1-.406 1.293l.003-.004c-.268.304-.725.457-1.397.457s-1.179-.163-1.466-.501zm4.859.022c-.295-.32-.442-.784-.442-1.399v-2.157c0-.609.147-1.07.442-1.383s.787-.469 1.478-.467c.686 0 1.176.156 1.471.467.294.313.444.774.444 1.383v2.156c0 .609-.149 1.077-.449 1.398s-.787.481-1.466.481-1.181-.163-1.479-.479zm2.021-.518c.106-.199.154-.419.14-.638v-2.641a1.18 1.18 0 0 0-.14-.632l.003.006a.558.558 0 0 0-.234-.17l-.004-.001a.622.622 0 0 0-.312-.037h.003a.643.643 0 0 0-.313.038l.004-.002a.569.569 0 0 0-.239.171l-.001.001c-.107.195-.154.41-.14.626V14.1c-.014.22.033.439.14.639a.732.732 0 0 0 .246.158.832.832 0 0 0 .605-.002l-.006.002a.723.723 0 0 0 .246-.158v-.013zm2.777-4.825h1.256l.944 3.979.967-3.979h1.222l.124 5.743h-.904l-.097-3.991-.932 3.991h-.725l-.966-4.006-.09 4.006h-.913l.114-5.743zm5.92 0h1.957c1.127 0 1.691.543 1.691 1.631 0 1.041-.594 1.562-1.781 1.56h-.666v2.552h-1.208l.007-5.744zm1.672 2.454a.93.93 0 0 0 .665-.182.928.928 0 0 0 .174-.649l.001-.063c0-.163-.022-.321-.062-.471l.003.013a.43.43 0 0 0-.089-.158.502.502 0 0 0-.149-.114l-.003-.001a1.24 1.24 0 0 0-.476-.094l-.066.002h.003-.469v1.717h.469zm3.719-2.454h1.297l1.331 5.743h-1.126l-.263-1.324h-1.157l-.27 1.324h-1.143l1.331-5.743zm1.108 3.753-.452-2.411-.452 2.411h.903zm2.594-3.753h.846l1.618 3.276V9.902h1.003v5.743h-.804l-1.628-3.42v3.42h-1.036l.002-5.743zm5.815 3.552-1.345-3.545h1.133l.821 2.278.77-2.278h1.109l-1.329 3.546v2.19h-1.159v-2.19zM35.59 18.156v.3h-.986v2.334h-.413v-2.334H33.2v-.3h2.389zm3.089 2.634h-.328a.141.141 0 0 1-.081-.025.137.137 0 0 1-.052-.06v-.001l-.285-.626h-1.367l-.284.626a.168.168 0 0 1-.044.071.144.144 0 0 1-.082.025h-.326l1.208-2.634h.42l1.223 2.624zm-2-.978h1.14l-.484-1.072a1.765 1.765 0 0 1-.086-.235l-.003-.014-.045.14-.044.11-.478 1.07zm4.083.719c.076.004.151.004.228 0a1.41 1.41 0 0 0 .193-.031c.059-.012.117-.028.174-.048.053-.018.107-.042.161-.065v-.592h-.487a.095.095 0 0 1-.061-.022.06.06 0 0 1-.018-.021.048.048 0 0 1-.006-.024V19.523h.937v1.01a1.792 1.792 0 0 1-.496.211l-.013.003c-.1.026-.2.043-.302.055a3.774 3.774 0 0 1-.353.016h-.015c-.212 0-.416-.036-.606-.102l.013.004a1.499 1.499 0 0 1-.486-.277l.002.002a1.276 1.276 0 0 1-.308-.409l-.003-.008a1.3 1.3 0 0 1-.111-.529v-.019.001-.016c0-.193.04-.377.112-.543l-.003.009c.069-.156.176-.299.311-.417.138-.119.302-.211.484-.273.206-.068.427-.101.647-.098.112 0 .225.007.336.023a1.62 1.62 0 0 1 .529.172c.074.041.144.087.211.137l-.116.163a.101.101 0 0 1-.039.035h-.001a.112.112 0 0 1-.055.014.156.156 0 0 1-.075-.021h.001a1.595 1.595 0 0 1-.126-.066l.007.004a1.098 1.098 0 0 0-.154-.069l-.008-.002a1.522 1.522 0 0 0-.213-.057l-.009-.001a1.749 1.749 0 0 0-.29-.023h-.017.001-.015c-.162 0-.317.027-.462.076l.01-.003a1.022 1.022 0 0 0-.356.208.944.944 0 0 0-.222.321l-.002.006a1.234 1.234 0 0 0 .003.887l-.003-.008a.938.938 0 0 0 .242.332c.099.09.219.161.352.208.154.046.316.063.479.052zm3.85-.041h1.319v.3h-1.722v-2.634h.412l-.009 2.334zm2.691.3h-.412v-2.634h.412v2.634zm1.537-2.621a.2.2 0 0 1 .063.047l1.766 1.985-.002-.047.002-.049v.002-1.963h.36v2.645h-.222a.196.196 0 0 1-.077-.016h.001a.23.23 0 0 1-.065-.05l-1.764-1.984v2.048h-.346v-2.634h.215c.023 0 .047.004.068.012zm5.23-.013v.289h-1.463v.87h1.186v.279h-1.186v.9h1.463v.289h-1.889v-2.628h1.889zM10.782 1.889l18.343 4.496v15.757l-18.343-4.494V1.888zM9.605.545v17.868l20.693 5.075V5.622L9.605.546z"/><path d="M20.696 31.781 0 26.702V8.837l20.696 5.077v17.867z"/><path d="m9.948 1.686 18.103 4.44-7.698 6.649L2.246 8.333l7.702-6.647zM9.605.545 0 8.837l20.696 5.077 9.603-8.294L9.606.545zM21.86 30.776l8.439-7.288-8.439-2.069v9.358z"/></symbol>
</defs>
</svg>
